 
<svg className='logoMain'
        width={140}
        transform="translate(-15 0)"
        viewBox="0 0 592.209 592.209"
        xmlns="http://www.w3.org/2000/svg"

      >
        <defs>
          <path id="b" d="M148.704 57.476h301.857v210.218H148.704z" />
          <path id="a" d="M97.142 95.805h444.869v220.006H97.142z" />
        </defs>
        <g
          aria-label="AUDIO SHOP"
          style={{
            fontSize: "55.6387px",
            lineHeight: 1.25,
            fontFamily: "'Aller Display'",
            InkscapeFontSpecification: "'Aller Display, Normal'",
            letterSpacing: "10.4323px",
            strokeWidth: 0.521613,
          }}
        >
          <path d="M133.878 155.557q-.719 1.064-1.359 1.888-.64.825-1.312 1.526-.672.7-1.674 1.509-.93.812-2.188 1.73l-16.648-38.793q.867-1.14 1.618-2.08.79-.98 1.649-1.876.71-.74 1.602-1.513.929-.811 2.117-1.815l33.308 21.505q-1.814 2.599-3.42 4.274-.748.779-1.565 1.473-.817.695-1.817 1.422l-6.29-4.374q-.765 1.428-1.596 2.609-.794 1.142-1.728 2.116-.86.896-1.861 1.704-1.037.766-2.254 1.484zm-13.269-27.69 6.501 13.434q.81-.452 1.476-.91.666-.458 1.263-1.08.636-.663 1.163-1.37.53-.789 1.027-1.7zM172.257 122.355q-3.486 2.493-6.42 3.09-2.892.566-5.365-.464-2.5-1.08-4.7-3.535-2.155-2.487-4.21-6.07l-11.363-19.798q1.137-1.086 2.013-1.78.848-.744 1.665-1.329.732-.523 1.648-1.042.931-.597 2.29-1.296l10.78 18.782q1.388 2.42 2.533 3.991 1.144 1.571 2.186 2.329 1.084.726 2.18.625 1.067-.149 2.401-1.103 1.334-.954 1.901-1.975.583-1.1.402-2.472-.138-1.403-.98-3.19-.801-1.817-2.19-4.238l-10.78-18.782q1.18-1.117 2.013-1.78.848-.744 1.58-1.267.774-.554 1.733-1.104.932-.597 2.29-1.296l11.363 19.798q2.056 3.582 3.136 6.838 1.122 3.226.955 6.213-.194 2.939-1.907 5.666-1.67 2.696-5.154 5.189zM193.037 62.192q8.975-3.993 15.452-.997 6.457 2.943 10.047 12.915 3.647 10.133.607 16.992-3.059 6.806-12.366 10.947-2.374 1.056-4.702 1.783-2.26.758-4.513 1.39l-13.706-38.079q.674-.424 1.728-1.016 1.035-.646 2.278-1.323 1.244-.677 2.554-1.322 1.339-.72 2.621-1.29zm10.204 31.717q.352-.095.78-.285l.901-.402q1.852-.823 3.294-2.022 1.47-1.273 2.196-3.08.727-1.809.604-4.291-.075-2.504-1.303-5.917-1.21-3.36-2.728-5.283-1.518-1.923-3.166-2.674-1.62-.827-3.378-.663-1.779.11-3.488.872-.95.422-1.358.666l-.57.253zM244.196 88.141q-1.843.482-4.54.656l-8.545-39.89q1.297-.574 2.369-.972 1.071-.398 1.918-.62.896-.234 2.016-.408 1.169-.188 2.512-.303l8.545 39.89q-2.532 1.192-4.275 1.647zM261.415 62.748q-.35-4.575.27-8.544.668-4.032 2.388-7.062 1.772-3.035 4.66-4.902 2.935-1.929 7.12-2.298 4.184-.37 7.321 1.023 3.134 1.335 5.292 4.024 2.209 2.683 3.43 6.548 1.267 3.803 1.617 8.378.35 4.575-.322 8.549-.625 3.912-2.396 6.947-1.725 2.974-4.613 4.84-2.892 1.81-7.077 2.18-4.184.37-7.364-.904-3.134-1.336-5.338-3.962-2.158-2.688-3.421-6.434-1.217-3.808-1.567-8.383zm22.606-1.995q-.954-12.467-7.435-11.895-6.634.586-5.68 13.052.478 6.234 2.296 9.182 1.865 2.887 5.233 2.59 6.532-.577 5.586-12.93zM348.885 61.521q1.958 1.411 3.453 2.781 1.555 1.324 2.532 2.992.986 1.61 1.316 3.723.34 2.055-.115 4.816-.491 2.986-1.847 5.204-1.296 2.172-3.397 3.53-2.092 1.303-4.919 1.69-2.768.34-6.193-.393-3.123-.669-5.448-1.75-2.275-1.07-4.85-2.846.526-1.929 1.391-4.018.875-2.146 1.96-4.305 4.264 3.246 7.689 3.979 2.569.55 4.118.006 1.61-.588 1.962-2.73.148-.9-.052-1.585-.19-.741-.62-1.3-.43-.558-1.038-.98-.549-.467-1.157-.89l-2.626-1.786q-1.693-1.12-3.037-2.458-1.294-1.327-2.13-2.906-.825-1.635-1.133-3.567-.257-1.921.142-4.344.491-2.986 1.778-5.102t3.159-3.349q1.93-1.278 4.378-1.57 2.456-.35 5.327.265 2.569.55 4.844 1.62 2.325 1.08 4.869 2.734-.499 1.76-1.415 3.838-.856 2.033-1.977 3.776-1.208-.9-2.86-1.953-1.65-1.054-4.27-1.614-.806-.173-1.59-.166-.733.018-1.402.283-.61.22-1.074.82-.454.545-.612 1.503-.269 1.634.558 2.627.828.994 2.044 1.837zM389.51 101.975q-1.776-.753-4.112-2.295l5.213-15.659-8.496-3.605-5.214 15.658q-2.705-.597-4.385-1.31-1.776-.753-4.111-2.295L381.15 54.18q1.368.335 2.46.676 1.092.341 1.908.688.864.366 1.884.922 1.069.575 2.245 1.32l-4.73 14.21 8.496 3.605 4.731-14.21q1.368.335 2.412.656 1.091.34 1.956.708.864.366 1.884.922 1.068.575 2.245 1.32l-12.747 38.287q-2.705-.597-4.385-1.31zM416.81 93.147q2.13-3.903 4.73-6.678 2.668-2.793 5.662-4.086 3.038-1.263 6.365-.849 3.397.396 6.985 2.87 3.587 2.474 5.396 5.669 1.835 3.146 2.166 6.732.374 3.616-.676 7.525-.98 3.89-3.11 7.794-2.13 3.903-4.773 6.647-2.572 2.726-5.61 3.989-2.967 1.244-6.294.83-3.3-.463-6.888-2.937-3.587-2.474-5.493-5.601-1.835-3.146-2.236-6.713-.331-3.586.622-7.428 1.024-3.861 3.154-7.764zm19.38 13.365q5.807-10.635.25-14.467-5.687-3.922-11.493 6.714-2.903 5.317-2.985 8.887-.011 3.552 2.876 5.543 5.6 3.862 11.353-6.677zM466.035 130.419q.123.277.548.782.424.504.92 1.004 1.644 1.655 3.528 1.631 1.885-.024 3.624-2.193 1.023-1.276 1.36-2.474.411-1.2.247-2.288-.13-1.13-.724-2.113-.594-.983-1.434-1.83l-.535-.538q-.306-.308-.646-.573zm4.914-21.035q.981.757 2.948 2.353 2.039 1.593 4.79 4.364 2.026 2.04 3.749 4.543 1.722 2.504 2.41 5.35.762 2.842.089 6.008t-3.401 6.568q-2.421 3.02-4.865 4.173-2.405 1.19-4.735.996-2.293-.156-4.46-1.416-2.129-1.222-3.963-3.069-.726-.731-1.456-1.544-.658-.816-.896-1.209l-7.945 9.91q-1.164-.787-2.035-1.51-.87-.724-1.558-1.416-1.338-1.347-3.018-3.732z" />
        </g>
        <g
          aria-label="La Boutique Du Son"
          style={{
            fontSize: "71.0913px",
            lineHeight: 1.25,
            fontFamily: "'Aller Display'",
            InkscapeFontSpecification: "'Aller Display, Normal'",
            letterSpacing: "9.51177px",
            strokeWidth: 0.666481,
          }}
        >
          <path d="M88.656 299.501q.472 1.93.764 3.51.293 1.58.408 2.811.12 1.304.124 2.911.01 1.68-.105 3.59l-40.566 3.766 1.553 16.733q-1.777.53-3.147.73-1.29.266-2.377.367-1.231.115-2.621.097-1.31.049-3.228-.138l-2.743-29.555zM53.706 344.03q3.434-.956 6.087-.108 2.652.848 4.627 2.79 1.975 1.942 3.246 4.61 1.34 2.647 2.081 5.31l1.19 4.276q1.242-.421 1.908-1.286.665-.865.813-1.963.217-1.118.026-2.348-.121-1.25-.472-2.512-.468-1.682-1.513-3.808-.974-2.145-2.478-4.294 1.016-.963 1.86-1.726.865-.694 1.768-1.247.993-.503 2.005-.935 1.102-.382 2.504-.772 2.057 3.052 3.535 6.19 1.496 3.208 2.237 5.872 1.014 3.644.922 6.842-.022 3.177-1.28 5.717-1.236 2.61-3.798 4.53-2.492 1.902-6.417 2.994l-20.536 5.713q-1.512-2.45-3.335-6.02-1.824-3.57-2.994-7.775-1.014-3.645-1.171-6.924-.208-3.189.66-5.771.867-2.582 2.899-4.507 2.122-1.874 5.626-2.849zm.677 17.632q.175.63.647 1.783.472 1.153.768 1.675l7.71-2.145-1.112-3.995q-.682-2.453-2.202-3.843-1.519-1.39-3.411-.863-1.402.39-2.068 1.254-.595.846-.762 1.874-.148 1.098.005 2.188.172 1.16.425 2.072zM100.547 441.198q-4.055 2.57-7.632 2.77-3.577.2-6.749-1.406-3.172-1.607-6.045-4.782-2.874-3.174-5.522-7.353-2.104-3.318-3.533-6.116-1.429-2.798-3.007-6.104l43.934-27.848q1.849 2.102 3.847 4.711 1.999 2.61 4.336 6.296 2.22 3.503 3.514 6.903 1.394 3.423 1.422 6.592.089 3.13-1.428 5.901-1.417 2.793-4.92 5.013-2.887 1.83-6.102 2.059-3.152.19-5.69-.959.344 1.764.24 3.639-.003 1.897-.732 3.737-.628 1.862-2.082 3.645-1.454 1.783-3.85 3.302zm-7.316-24.045-10.323 6.543q.21.47.539 1.123l1.09 1.72q.74 1.168 1.726 2.18 1.025 1.073 2.201 1.705 1.238.594 2.572.524 1.434-.048 2.97-1.021 2.95-1.87 2.809-4.537-.04-2.645-1.987-5.718zm8.725-5.53 1.09 1.72q1.675 2.642 3.655 3.455 2.04.774 4.683-.901 1.29-.818 1.8-1.916.549-1.037.534-2.148-.015-1.11-.454-2.21-.439-1.1-1.023-2.022l-.584-.921q-.312-.492-.607-.822zM109.993 447.717q3.2-3.075 6.63-4.755 3.533-1.678 7.035-1.813 3.552-.083 6.967 1.478 3.469 1.51 6.644 4.816 3.225 3.358 4.595 6.885 1.422 3.476 1.145 6.969-.225 3.545-2.095 6.955-1.767 3.412-4.967 6.486-3.148 3.024-6.629 4.651-3.377 1.63-6.929 1.713-3.449.085-6.865-1.476-3.416-1.561-6.64-4.92-3.176-3.305-4.598-6.78-1.422-3.477-1.249-6.972.277-3.493 1.99-6.855 1.818-3.359 4.966-6.382zm17.336 18.049q3.358-3.226 4.033-6.093.726-2.816-1.491-5.124-2.218-2.309-5.06-1.697-2.842.611-6.2 3.837-3.306 3.175-4.031 5.99-.726 2.815 1.491 5.124 2.218 2.308 5.06 1.697 2.893-.56 6.198-3.734zM162.937 515.425q-1.264-.35-2.945-.993-1.622-.601-3.482-1.369-1.758-.785-3.553-1.774-1.794-.988-3.404-2.113-3.041-2.126-5.51-4.562-2.469-2.436-3.615-5.368-1.045-2.95-.38-6.568.707-3.677 3.958-8.328l12.172-17.41q1.52.618 2.855 1.374 1.396.798 2.588 1.632 1.133.792 2.361 1.828 1.229 1.036 2.272 2.21l-11.587 16.576q-2.501 3.577-2.226 5.722.276 2.146 2.72 3.855 1.014.708 1.592 1.024.579.315.859.423l15.797-22.598q1.52.618 2.856 1.375 1.395.797 2.588 1.63 1.133.793 2.361 1.83 1.228 1.035 2.272 2.209zM196.481 504.051l-9.819-4.417q.265-1.476.64-2.664.471-1.224.949-2.286.477-1.061 1.051-2.16.64-1.067 1.569-2.245l30.85 13.88q-.265 1.475-.706 2.633-.375 1.188-.852 2.25-.478 1.06-1.148 2.195-.573 1.098-1.502 2.276l-9.82-4.418-11.192 24.88q-1.844-.51-3.297-1.005-1.453-.494-2.581-1.001-1.128-.508-2.462-1.267-1.333-.76-2.872-1.771zM232.995 546.263q-1.9-.232-3.41-.506-1.51-.273-2.7-.608-1.19-.335-2.622-.888-1.431-.554-3.104-1.326l10.161-36.138q1.64.083 3.15.356 1.58.293 2.98.687 1.331.374 2.833.948 1.501.573 2.873 1.337zM263.66 562.367q.317-2.087.949-4.357.695-2.189 1.646-4.055l19.397 5.124q-.317 2.087-1.013 4.277-.631 2.27-1.582 4.136zm-12.92-30.443q.515-4.407 2.093-7.885 1.66-3.542 4.276-5.873 2.689-2.322 6.318-3.29 3.637-1.039 8.19-.507 4.624.541 7.923 2.392 3.308 1.778 5.316 4.65 2.08 2.88 2.806 6.7.806 3.757.29 8.165-.507 4.335-2.158 7.804-1.57 3.406-4.258 5.728-2.608 2.259-6.237 3.226-3.63.968-8.254.427-4.552-.532-7.86-2.31-3.308-1.78-5.397-4.587-2.008-2.872-2.822-6.556-.734-3.748-.227-8.084zm24.856 2.907q.54-4.625-.762-7.267-1.23-2.635-4.409-3.006-3.18-.372-4.984 1.907-1.805 2.28-2.346 6.904-.532 4.552.698 7.187 1.23 2.634 4.41 3.006 3.18.371 4.984-1.908 1.877-2.27 2.41-6.823zM334.66 550.532q-1.2.532-2.906 1.103-1.634.566-3.558 1.155-1.858.51-3.872.887-2.013.377-3.971.53-3.7.29-7.154-.023-3.454-.313-6.201-1.849-2.681-1.614-4.466-4.83-1.79-3.29-2.234-8.947l-1.66-21.178q1.567-.488 3.08-.753 1.583-.27 3.034-.383 1.378-.108 2.985-.088 1.607.02 3.158.263l1.581 20.162q.341 4.352 1.917 5.834 1.576 1.482 4.55 1.249 1.232-.097 1.88-.22.646-.124.93-.22l-2.154-27.487q1.567-.488 3.079-.753 1.584-.27 3.035-.384 1.378-.108 2.985-.088 1.607.02 3.158.264zM358.666 531.914q1.565 2.662 3.787 3.332 2.293.65 5.449-.22 2.033-.561 4.423-1.749 2.389-1.187 4.573-2.846 1.484 1.552 2.882 3.883 1.468 2.312 2.293 5.028-5.603 4.036-12.125 5.836-5.05 1.393-9.083.996-3.964-.415-6.955-2.231-2.941-1.906-5.011-5.033-2-3.146-3.123-7.213-1.103-3.998-.948-7.814.155-3.816 1.683-7.03 1.528-3.214 4.488-5.615 2.94-2.472 7.429-3.71 3.717-1.026 6.94-.557 3.294.45 5.947 2.133 2.634 1.613 4.556 4.478 1.974 2.776 2.98 6.423.522 1.894.738 3.495.266 1.51.396 2.531zm1.798-15.364q-2.244.62-3.47 2.467-1.226 1.848-.694 4.87l11.221-3.095q-.817-2.416-2.665-3.642-1.797-1.316-4.392-.6zM405.902 470.999q11.523-7.503 21.268-5.601 9.707 1.84 17.13 13.24 7.542 11.584 4.979 20.98-2.603 9.334-14.553 17.115-3.048 1.985-6.112 3.546-2.963 1.582-5.945 3.002l-28.343-43.529q.835-.717 2.158-1.752 1.283-1.096 2.85-2.29 1.566-1.194 3.234-2.366 1.688-1.273 3.334-2.345zm21.921 36.599q.467-.217 1.015-.574l1.159-.754q2.377-1.549 4.093-3.447 1.737-1.999 2.308-4.455.572-2.455-.202-5.51-.714-3.096-3.254-6.997-2.501-3.841-5.083-5.806-2.582-1.965-5.058-2.436-2.456-.572-4.865.129-2.448.64-4.643 2.068-1.22.794-1.728 1.212l-.732.477zM493.146 464.574q-.563 1.185-1.485 2.73-.87 1.495-1.946 3.195-1.077 1.597-2.359 3.195-1.282 1.598-2.667 2.991-2.617 2.63-5.44 4.644-2.825 2.013-5.91 2.638-3.085.523-6.535-.755-3.502-1.328-7.524-5.33l-15.06-14.983q.871-1.391 1.845-2.577 1.026-1.237 2.052-2.269.975-.98 2.207-2.012 1.232-1.032 2.568-1.858l14.337 14.264q3.094 3.079 5.255 3.176 2.161.098 4.265-2.017.872-.877 1.282-1.392.41-.516.564-.773l-19.546-19.447q.87-1.391 1.845-2.577 1.026-1.237 2.052-2.268.975-.98 2.207-2.012 1.232-1.032 2.567-1.859zM501.95 397.386q2.533-2.11 4.82-3.61 2.257-1.597 4.684-2.279 2.364-.716 5.055-.348 2.627.333 5.77 2.014 3.4 1.82 5.506 4.514 2.077 2.596 2.83 5.969.689 3.339-.04 7.322-.758 3.885-3.092 8.247-2.128 3.977-4.416 6.713-2.255 2.671-5.49 5.479-2.107-1.458-4.266-3.438-2.223-2.014-4.372-4.32 5.723-4.528 8.057-8.89 1.75-3.272 1.749-5.582-.031-2.41-2.469-3.714-1.026-.55-1.938-.542-.975-.027-1.832.34-.856.367-1.623 1.03-.797.563-1.564 1.226l-3.268 2.871q-2.07 1.863-4.254 3.17-2.15 1.242-4.41 1.766-2.325.489-4.79.16-2.43-.392-5.188-1.868-3.4-1.819-5.412-4.38-2.012-2.562-2.71-5.576-.728-3.112-.047-6.543.617-3.466 2.573-7.122 1.75-3.272 4.005-5.943 2.288-2.736 5.36-5.548 1.916 1.355 4.04 3.399 2.094 1.945 3.726 4.139-1.598 1.29-3.569 3.123-1.97 1.834-3.755 5.17-.55 1.026-.872 2.09-.288 1.002-.25 2.012.007.911.536 1.772.466.827 1.556 1.41 1.86.995 3.41.257t3.085-2.063zM524.298 381.765q-4.246-1.288-7.39-3.459-3.19-2.26-5.02-5.249-1.81-3.057-2.118-6.8-.379-3.764.952-8.15 1.352-4.456 3.758-7.375 2.337-2.94 5.52-4.407 3.203-1.537 7.09-1.573 3.84-.128 8.087 1.161 4.177 1.268 7.299 3.507 3.073 2.15 4.882 5.207 1.76 2.967 2.07 6.71.308 3.743-1.044 8.198-1.33 4.386-3.667 7.326-2.337 2.94-5.47 4.499-3.183 1.467-6.953 1.615-3.819.058-7.996-1.21zm7.267-23.948q-4.455-1.352-7.287-.538-2.81.743-3.74 3.806-.93 3.064.994 5.244 1.923 2.18 6.378 3.532 4.386 1.33 7.197.587 2.81-.744 3.74-3.807.93-3.063-.994-5.243-1.902-2.25-6.288-3.58zM519.24 316.508q.31-3.186 1.2-6.316.817-3.136 2.802-5.501 1.992-2.437 5.406-3.712 3.42-1.348 8.778-.826l21.65 2.111q.179 1.918.103 3.446-.003 1.534-.117 2.693-.12 1.23-.413 2.737-.22 1.514-.766 3.361l-20.346-1.984q-3.838-.374-5.645.912-1.806 1.286-2.096 4.254-.077.797-.024 1.752.06.883.183 1.114l27.08 2.641q.18 1.918.103 3.445-.003 1.535-.116 2.694-.12 1.23-.413 2.737-.22 1.513-.766 3.36l-35.552-3.466q-.622-2.619-1.066-6.317-.515-3.705.014-9.135z" />
        </g>
        <path
          style={{
            fill: "none",
            stroke: "#000",
            strokeWidth: 13.8322,
            strokeLinecap: "round",
            strokeLinejoin: "round",
            paintOrder: "stroke fill markers",
          }}
          transform="scale(-1 1) rotate(34.954 954.346 318.638)"
          d="M205.748 1016.569A289.202 289.202 0 0 1-83.453 1305.77a289.202 289.202 0 0 1-289.202-289.202A289.202 289.202 0 0 1-83.453 727.367a289.202 289.202 0 0 1 289.201 289.202Z"
        />
        <path
          style={{
            fill: "none",
            stroke: "#000",
            strokeWidth: 13.2292,
            strokeLinecap: "round",
            strokeLinejoin: "round",
            paintOrder: "stroke fill markers",
          }}
          transform="scale(-1 1) rotate(34.954 954.346 318.638)"
          d="M100.53 1016.569a183.983 183.983 0 0 1-183.983 183.983 183.983 183.983 0 0 1-183.984-183.983A183.983 183.983 0 0 1-83.453 832.585 183.983 183.983 0 0 1 100.53 1016.57Z"
        />
        <path
          style={{
            stroke: "#000",
            strokeWidth: 3.136,
            strokeLinecap: "round",
            strokeLinejoin: "round",
            paintOrder: "stroke fill markers",
          }}
          d="m900.66 714.416-60.493-47.133 29.636 44.606-17.443 8.515 64.538 47.496-35.68-43.36zM401.225 712.77l60.492-47.133-29.636 44.607 17.443 8.515-64.538 47.496 35.68-43.361z"
          transform="translate(-354.7 -489.28)"
        />
        <path
          style={{
            fill: "none",
            stroke: "#000",
            strokeWidth: 5,
            strokeLinecap: "round",
            strokeLinejoin: "round",
            paintOrder: "stroke fill markers",
          }}
          transform="rotate(170.536 134.793 97.134) scale(.66384)"
          d="M128.416-123.947A135.875 135.875 0 0 1 22.736 8.531"
        />
        <path
          style={{
            fill: "none",
            stroke: "#000",
            strokeWidth: 20,
            strokeLinecap: "round",
            strokeLinejoin: "round",
            paintOrder: "stroke fill markers",
          }}
          transform="rotate(-130.239 181.463 19.6) scale(.66384)"
          d="M24.581-64.238A135.875 135.875 0 0 1-81.099 68.24"
        />
        <path
          style={{
            fill: "none",
            stroke: "#000",
            strokeWidth: 5,
            strokeLinecap: "round",
            strokeLinejoin: "round",
            paintOrder: "stroke fill markers",
          }}
          transform="matrix(.6548 .10916 .10916 -.6548 283.724 170.782)"
          d="M171.518-117.097A135.875 135.875 0 0 1 65.838 15.381"
        />
        <path
          style={{
            fill: "none",
            stroke: "#000",
            strokeWidth: 5,
            strokeLinecap: "round",
            strokeLinejoin: "round",
            paintOrder: "stroke fill markers",
          }}
          transform="matrix(.01445 .66368 .66174 .05279 283.724 170.782)"
          d="M380.28 50.504a136.117 101.755 0 0 1-105.868 99.21"
        />
        <path
          style={{
            stroke: "#000",
            strokeWidth: 15,
            strokeLinecap: "round",
            strokeLinejoin: "round",
            paintOrder: "stroke fill markers",
          }}
          transform="matrix(.64473 .15813 -.0131 .66371 283.724 170.782)"
          d="M-103.54 324.257a42.251 69.95 0 0 1-49.418-54.482 42.251 69.95 0 0 1 32.28-82.5l9.093 68.311z"
        />
        <path
          style={{
            stroke: "#000",
            strokeWidth: 15,
            strokeLinecap: "round",
            strokeLinejoin: "round",
            paintOrder: "stroke fill markers",
          }}
          transform="matrix(-.59326 -.29787 .16072 -.6441 283.724 170.782)"
          d="M-207.623-68.828a42.251 69.95 0 0 1-49.42-54.482 42.251 69.95 0 0 1 32.281-82.5l9.093 68.312z"
        />
        <path
          style={{
            stroke: "#000",
            strokeWidth: 10.859,
            strokeLinecap: "round",
            strokeLinejoin: "round",
            paintOrder: "stroke fill markers",
          }}
          transform="rotate(7.361 -1185.38 2290.241) scale(.66384)"
          d="M163.472 123.14c4.334 0 7.824 9.829 7.824 22.038V263.64c0 12.21-3.49 22.039-7.824 22.039s-7.823-9.83-7.823-22.04V145.18c0-12.21 3.49-22.04 7.823-22.04z"
        />
        <path
          style={{
            stroke: "#000",
            strokeWidth: 10.859,
            strokeLinecap: "round",
            strokeLinejoin: "round",
            paintOrder: "stroke fill markers",
          }}
          transform="rotate(-5.516 1913.799 -2858.605) scale(.66384)"
          d="M-110.026 135.666c4.334 0 7.824 9.83 7.824 22.04v118.46c0 12.21-3.49 22.04-7.824 22.04s-7.823-9.83-7.823-22.04v-118.46c0-12.21 3.49-22.04 7.823-22.04z"
        />
        <path
          style={{
            stroke: "#000",
            strokeWidth: 6.17387,
            strokeLinecap: "round",
            strokeLinejoin: "round",
            paintOrder: "stroke fill markers",
          }}
          transform="matrix(-.09202 -.65743 .65353 -.11654 283.724 170.782)"
          d="M-387.913-37.63h1.406a7.107 7.107 0 0 1 7.122 7.123V7.775a7.107 7.107 0 0 1-7.122 7.122h-1.406a7.107 7.107 0 0 1-7.123-7.122v-38.282a7.107 7.107 0 0 1 7.123-7.122z"
        />
        <path
          style={{
            fill: "#fff",
            strokeWidth: 2.28777,
            strokeLinecap: "round",
            strokeLinejoin: "round",
            paintOrder: "stroke fill markers",
          }}
          transform="matrix(-.09531 -.65696 .65423 -.11256 283.724 170.782)"
          d="M-382.41-39.524c1.579 0 2.85 3.214 2.85 7.206v5.388c0 3.991-1.271 7.205-2.85 7.205-1.58 0-2.851-3.214-2.851-7.205v-5.388c0-3.992 1.271-7.206 2.85-7.206z"
        />
        <path
          style={{
            fill: "#fff",
            strokeWidth: 2.30886,
            strokeLinecap: "round",
            strokeLinejoin: "round",
            paintOrder: "stroke fill markers",
          }}
          transform="rotate(7.361 -1185.38 2290.241) scale(.66384)"
          d="M168.11 124.302c1.188 0 2.145 1.621 2.145 3.635v19.536c0 2.014-.957 3.635-2.145 3.635-1.188 0-2.144-1.621-2.144-3.635v-19.536c0-2.014.956-3.635 2.144-3.635z"
        />
        <path
          style={{
            fill: "#fff",
            strokeWidth: 2.30886,
            strokeLinecap: "round",
            strokeLinejoin: "round",
            paintOrder: "stroke fill markers",
          }}
          transform="rotate(-5.516 1913.799 -2858.605) scale(.66384)"
          d="M-115.232 137.107c1.188 0 2.144 1.62 2.144 3.634v19.537c0 2.013-.956 3.634-2.144 3.634-1.188 0-2.145-1.62-2.145-3.634V140.74c0-2.013.957-3.634 2.145-3.634z"
        />
        <path
          style={{
            fill: "none",
            stroke: "#fff",
            strokeWidth: 5.0031,
            strokeLinecap: "round",
            strokeLinejoin: "round",
            paintOrder: "stroke fill markers",
          }}
          transform="matrix(-.66343 .0233 -.02674 -.6633 283.724 170.782)"
          d="M157.598-211.013a18.205 41.716 0 0 1-14.159 40.673"
        />
        <path
          style={{
            fill: "#fff",
            fillOpacity: 1,
            stroke: "none",
            strokeWidth: 7.12883,
            strokeLinecap: "butt",
            strokeLinejoin: "miter",
            strokeMiterlimit: 4,
            strokeDasharray: "none",
            strokeOpacity: 1,
          }}
          d="M198.226 193.347s-27.593-32.722-29.34-33.405l-7.962 65.226 12.384-50.755z"
          transform="translate(283.724 170.782) scale(.66384)"
        />
        <path
          style={{
            strokeWidth: 14.2016,
            strokeLinecap: "round",
            strokeLinejoin: "round",
            paintOrder: "stroke fill markers",
          }}
          d="M30.477 160.098h3.898v153.359h-3.898z"
          transform="translate(283.724 170.782) scale(.66384)"
        />
        <path
          style={{
            strokeWidth: 12.1378,
            strokeLinecap: "round",
            strokeLinejoin: "round",
            paintOrder: "stroke fill markers",
          }}
          d="M-1.92 180.764h3.898V292.79h-3.899zM46.928 180.764h3.9V292.79h-3.9z"
          transform="translate(283.724 170.782) scale(.66384)"
        />
        <path
          style={{
            strokeWidth: 10.201,
            strokeLinecap: "round",
            strokeLinejoin: "round",
            paintOrder: "stroke fill markers",
          }}
          d="M-34.318 197.214h3.899v79.126h-3.9zM63.38 197.214h3.899v79.126H63.38Z"
          transform="translate(283.724 170.782) scale(.66384)"
        />
        <path
          style={{
            strokeWidth: 8.24827,
            strokeLinecap: "round",
            strokeLinejoin: "round",
            paintOrder: "stroke fill markers",
          }}
          d="M14.531 207.056h3.393v59.442H14.53zM-17.867 207.056h3.393v59.442h-3.393zM79.832 207.056h3.393v59.442h-3.393z"
          transform="translate(283.724 170.782) scale(.66384)"
        />
        <path
          style={{
            strokeWidth: 6.6953,
            strokeLinecap: "round",
            strokeLinejoin: "round",
            paintOrder: "stroke fill markers",
          }}
          d="M-50.264 217.194h3.393v39.166h-3.393ZM95.778 217.194h3.392v39.166h-3.392z"
          transform="translate(283.724 170.782) scale(.66384)"
        />
        <path
          style={{
            strokeWidth: 4.43079,
            strokeLinecap: "round",
            strokeLinejoin: "round",
            paintOrder: "stroke fill markers",
          }}
          d="M-66.21 228.2h3.393v17.153h-3.393zM111.723 228.2h3.393v17.153h-3.393z"
          transform="translate(283.724 170.782) scale(.66384)"
        />
      </svg>
