<?xml version="1.0" encoding="UTF-8" standalone="no"?>
<!-- Created with Inkscape (http://www.inkscape.org/) -->

<svg
   width="604.83026mm"
   height="219.17731mm"
   viewBox="0 0 604.83027 219.1773"
   version="1.1"
   id="svg5"
   inkscape:version="1.2 (56b05e47e7, 2022-06-09, custom)"
   sodipodi:docname="CircuitBanner.svg"
   xmlns:inkscape="http://www.inkscape.org/namespaces/inkscape"
   xmlns:sodipodi="http://sodipodi.sourceforge.net/DTD/sodipodi-0.dtd"
   xmlns="http://www.w3.org/2000/svg"
   xmlns:svg="http://www.w3.org/2000/svg">
  <sodipodi:namedview
     id="namedview7"
     pagecolor="#505050"
     bordercolor="#eeeeee"
     borderopacity="1"
     inkscape:showpageshadow="0"
     inkscape:pageopacity="0"
     inkscape:pagecheckerboard="0"
     inkscape:deskcolor="#505050"
     inkscape:document-units="mm"
     showgrid="false"
     inkscape:zoom="0.4204826"
     inkscape:cx="827.62045"
     inkscape:cy="173.61004"
     inkscape:window-width="1920"
     inkscape:window-height="1004"
     inkscape:window-x="0"
     inkscape:window-y="0"
     inkscape:window-maximized="1"
     inkscape:current-layer="layer1">
    <inkscape:grid
       type="xygrid"
       id="grid132"
       originx="180.64465"
       originy="-36.277703" />
  </sodipodi:namedview>
  <defs
     id="defs2" />
  <g
     inkscape:label="Layer 1"
     inkscape:groupmode="layer"
     id="layer1"
     transform="translate(180.64465,-36.277715)">
    <g
       id="g2061">
      <g
         id="g1226-7-6"
         transform="translate(0.514479,5.13459)" />
      <g
         id="g1226-7-3-61"
         transform="translate(-6.8803953,13.80263)" />
      <g
         id="g1226-7-3-6-7"
         transform="translate(-13.942026,22.46897)" />
      <g
         id="g1226-7-9-3"
         transform="translate(-22.271651,28.77122)" />
      <g
         id="g1226-7-3-2-5"
         transform="translate(-29.666525,37.43926)" />
      <path
         id="rect1624-7-3-1-7-4-6"
         style="color:#000000;fill:#d4aa00;stroke-miterlimit:2;stroke:#000e36;stroke-opacity:1;stroke-width:0.5;stroke-dasharray:none"
         d="m -4.8316572,32.191103 -0.041,0.0625 H -101.42735 l -30.97656,46.941405 0.80078,1.48438 h 19.87304 l 0.002,0.002 h 18.589843 l 0.0117,0.0234 h 19.14063 l 0.008,0.0156 h 19.38086 l 0.0273,-0.041 h 38.65625 l 0.0391,-0.0606 h 0.24804 l 30.97654,-46.94341 -0.79883,-1.484375 z m -95.5644528,1.976562 h 17.582033 l -29.427733,44.597653 h -17.58203 z m 76.517583,0 H -6.1363472 L -35.566027,78.765318 h -17.74024 z m 20.0371098,0 H 12.484753 l -29.38672,44.535153 h -16.32813 z m -76.6796898,0.002 h 16.32226 l -29.42773,44.595703 h -16.322273 z m 18.85156,0.02344 h 16.32227 l -29.41211,44.572263 h -16.32227 z m 18.89844,0.01563 h 16.57226 l -29.40234,44.556643 h -16.57227 z m 363.019527,168.630805 -0.041,0.0625 h -96.55468 l -30.97657,46.94141 0.80079,1.48633 h 19.875 18.58984 l 0.0117,0.0234 h 19.14062 l 0.008,0.0156 h 19.38086 l 0.0254,-0.0391 h 38.6582 l 0.041,-0.0625 h 0.2461 l 30.97656,-46.94141 -0.79883,-1.48633 z m -95.56445,1.97656 H 242.266 l -29.42774,44.59766 h -17.58203 z m 76.51953,0 h 17.74023 L 289.516,249.41376 h -17.74219 z m 20.03515,0 h 16.32618 l -29.38672,44.53516 h -16.32617 z m -76.67968,0.002 h 16.32226 l -29.42578,44.59566 h -16.32422 z m 18.85156,0.0234 h 16.32227 l -29.41211,44.57226 h -16.32227 z m 18.89844,0.0156 h 16.57226 l -29.40234,44.55666 h -16.57227 z m -412.97071,-4.26561 -0.79882,1.48438 30.97461,46.94336 h 0.24804 l 0.0391,0.0606 h 38.656253 l 0.0273,0.041 h 19.38282 l 0.01,-0.0176 h 19.13867 l 0.0117,-0.0215 h 18.5898398 l 0.002,-0.002 H 15.492753 l 0.79883,-1.48438 -30.97461,-46.94141 h -19.87695 -19.38086 -57.296883 l -0.041,-0.0625 z m 2.06641,1.97657 h 16.32422 l 29.388673,44.53515 h -16.32617 z m 18.62109,0 h 17.742193 l 29.42773,44.59765 h -17.74218 z m 76.677743,0 h 17.58203 l 29.42773,44.59765 H -3.8687672 Z m -18.61524,0.002 h 16.32227 l 29.4257798,44.5957 H -22.483997 Z m -18.85156,0.0215 h 16.31836 l 29.41602,44.57422 h -16.32227 z m -19.14844,0.0176 h 16.57227 l 29.40234,44.55664 h -16.57226 z M 196.20545,32.886415 l -0.79883,1.484375 30.97461,46.943358 h 0.24805 l 0.0391,0.0605 h 38.65625 l 0.0274,0.041 h 19.38281 l 0.008,-0.0156 h 19.14063 l 0.0117,-0.0234 h 18.58985 l 0.002,-0.002 h 19.87305 l 0.79883,-1.48437 -30.97461,-46.941409 H 215.6296 l -0.041,-0.0625 z m 2.06641,1.976563 h 16.32422 l 29.38867,44.53516 h -16.32617 z m 18.62109,0 h 17.74219 l 29.42773,44.59766 h -17.74218 z m 76.67578,0 h 17.58399 l 29.42773,44.59766 h -17.58203 z m -18.61523,0.002 h 16.32422 l 29.42578,44.5957 h -16.32031 z m -18.84961,0.02344 h 16.32031 l 29.41406,44.57227 H 285.516 Z m -19.14844,0.01563 h 16.57227 l 29.40234,44.55664 H 266.3578 Z M -2.7242372,190.24774 -179.97424,190.40595 v 1.91992 l 176.1777428,-0.15625 c 11.30655,18.22061 23.5572502,38.92944 34.9765602,57.30078 l 0.28125,0.45313 H 179.13709 l 0.28321,-0.44532 c 11.34122,-17.91352 25.10371,-39.05846 36.50976,-57.22851 l 208.60352,-0.0234 v -1.91992 l -209.66016,0.0234 -0.2832,0.44921 c -11.35533,18.1017 -25.11809,39.2438 -36.50782,57.22461 H 32.533583 C 21.117463,229.62157 8.8648728,208.90997 -2.4429872,190.70282 Z m 7.06004,-8.6662 -177.2500028,0.1582 0.002,1.91992 176.1777428,-0.15625 c 11.3065502,18.22061 23.5553002,38.92944 34.9746102,57.30078 l 0.2832,0.45313 H 171.38267 l 0.2832,-0.44532 c 11.34123,-17.91352 25.10372,-39.05846 36.50977,-57.22851 l 203.83985,-0.0234 v -1.92187 l -204.89844,0.0254 -0.28125,0.44922 c -11.35533,18.10169 -25.11809,39.24379 -36.50782,57.2246 H 39.595573 C 28.179453,220.95536 15.926863,200.24376 4.6190028,182.03661 Z m 7.3948702,-8.66804 -177.249993,0.1582 0.002,1.91992 176.177733,-0.15625 c 11.30655,18.22061 23.55531,38.92944 34.97461,57.30078 l 0.2832,0.45313 H 163.96115 l 0.28125,-0.44532 c 11.34831,-17.92472 24.59532,-39.0695 35.98632,-57.22851 l 201.19141,-0.0234 -0.002,-1.92187 -202.25196,0.0254 -0.28125,0.44922 c -11.36233,18.11286 -24.60778,39.25486 -35.98242,57.2246 H 46.990443 c -11.41611,-18.38208 -23.66871,-39.09368 -34.97656,-57.30083 z m 8.32963,-9.47608 -177.250003,0.15625 0.002,1.91992 176.177743,-0.15625 c 11.30655,18.22061 23.5553,38.93139 34.97461,57.30273 l 0.2832,0.45313 H 154.82787 l 0.28321,-0.44727 c 11.34095,-17.91309 25.10387,-39.05681 36.50976,-57.22656 l 200.13672,-0.0254 v -1.91992 l -201.19531,0.0234 -0.28125,0.45117 c -11.35533,18.10169 -25.11809,39.24184 -36.50781,57.22265 H 55.320063 c -11.41587,-18.38164 -23.66898,-39.09403 -34.97656,-57.30073 z m 7.06163,-8.66634 -177.250003,0.15625 0.002,1.91992 176.177743,-0.15625 c 11.30655,18.22061 23.5553,38.93139 34.97461,57.30273 l 0.2832,0.45313 h 85.763667 l 0.2832,-0.44727 c 11.34095,-17.91309 25.10388,-39.05681 36.50977,-57.22656 l 196.96093,-0.0254 v -1.91992 l -198.01953,0.0234 -0.28125,0.45117 c -11.35533,18.10169 -25.11809,39.24184 -36.50781,57.22265 H 62.381703 C 50.965823,194.14329 38.712713,173.4309 27.405133,155.2242 Z m 7.39487,-8.66804 -177.249993,0.15625 0.002,1.91992 176.177733,-0.15625 c 11.30655,18.22061 23.55531,38.93139 34.97461,57.30273 l 0.2832,0.45313 h 70.947267 l 0.28125,-0.44727 c 11.34804,-17.92428 24.59551,-39.06785 35.98633,-57.22656 l 195.36914,-0.0254 v -1.91992 l -196.43164,0.0234 -0.28125,0.45117 c -11.36233,18.11286 -24.60779,39.25291 -35.98242,57.22265 H 69.776573 c -11.41587,-18.38164 -23.66899,-39.09403 -34.97656,-57.30073 z m -3.37776,-113.290844 -0.28125,0.453125 C 19.438493,51.636668 7.1877828,72.345488 -4.1187672,90.566108 l -176.1757828,-0.15625 -0.002,1.91992 177.2500028,0.1582 0.28125,-0.45508 C 8.5426028,73.825758 20.795203,53.114148 32.211313,34.732118 H 177.75819 c 11.38998,17.98127 25.15398,39.1222 36.50976,57.22461 l 0.2832,0.44922 209.66016,0.0254 v -1.92188 L 215.6078,90.486068 C 204.20174,72.315978 190.43925,51.172988 179.09803,33.259462 l -0.2832,-0.447266 z m 7.0625,8.666016 -0.2832,0.453125 C 26.499323,60.302228 14.250053,81.011838 2.9437328,99.232118 L -173.234,99.075868 l -0.002,1.921872 177.2519528,0.15625 0.28125,-0.45507 C 15.605103,82.491768 27.857703,61.780168 39.273813,43.398134 H 170.00428 c 11.38998,17.981274 25.15399,39.122194 36.50977,57.224606 l 0.28125,0.44922 204.89843,0.0254 v -1.919922 l -203.83984,-0.0254 C 196.448,80.982288 182.68507,59.838568 171.34412,41.925478 l -0.2832,-0.447266 z m 7.39454,8.667966 -0.28125,0.45313 c -11.41903,18.37089 -23.67025,39.08049 -34.97657,57.300782 l -176.175783,-0.15625 -0.002,1.92187 177.250003,0.15625 0.28125,-0.45507 c 11.3079,-18.207152 23.5605,-38.918752 34.97661,-57.300782 H 162.5785 c 11.37494,17.9702 24.62159,39.11102 35.98437,57.224602 l 0.28125,0.44922 202.25391,0.0254 v -1.91992 l -201.19141,-0.0254 C 188.5158,89.661298 175.27028,68.517728 163.92225,50.593448 l -0.2832,-0.44727 z m 8.33007,9.47657 -0.2832,0.45507 c -11.4193,18.37135 -23.66806,39.08017 -34.97461,57.300782 l -176.177733,-0.15625 -0.002,1.91993 177.249993,0.15625 0.28321,-0.45313 c 11.3079,-18.20714 23.5605,-38.918752 34.97661,-57.300782 h 98.453127 c 11.38972,17.98081 25.15248,39.120962 36.50781,57.222662 l 0.28125,0.45117 201.19531,0.0234 v -1.91993 L 191.2992,117.29852 C 179.89315,99.128478 166.13066,77.983538 154.78944,60.070008 l -0.28321,-0.44726 z m 7.06055,8.66796 -0.28125,0.45313 c -11.4193,18.37134 -23.67001,39.080172 -34.97656,57.300782 l -176.175783,-0.15625 -0.002,1.91992 177.249993,0.1582 0.28125,-0.45507 c 11.30791,-18.20715 23.5605,-38.918752 34.97662,-57.300782 h 83.636717 c 11.38972,17.98081 25.15248,39.122912 36.50781,57.224602 l 0.2832,0.44922 198.01953,0.0234 v -1.91992 l -196.96289,-0.0234 C 172.13729,107.79449 158.3748,86.649548 147.03358,68.736028 l -0.28321,-0.44532 z m 7.39453,8.66797 -0.28125,0.45313 c -11.4193,18.37134 -23.67001,39.080172 -34.97656,57.300782 l -176.175783,-0.15625 -0.002,1.91992 177.249993,0.1582 0.28321,-0.45508 c 11.30785,-18.20714 23.5585,-38.918742 34.97461,-57.300772 h 68.816397 c 11.37464,17.96974 24.62009,39.111742 35.98243,57.224602 l 0.2832,0.44922 196.43164,0.0234 v -1.91992 l -195.37109,-0.0234 C 164.20507,116.4735 150.96001,95.328708 139.6117,77.403998 l -0.2832,-0.44532 z" />
    </g>
  </g>
</svg>
